<svg width="554" height="554" viewBox="0 0 554 554" fill="none" xmlns="http://www.w3.org/2000/svg">
<rect width="554" height="554" rx="58" fill="#1A1A1A"/>
<rect x="38" y="44" width="220" height="214" rx="34" fill="#A0A0A0"/>
<rect x="38" y="44" width="220" height="214" rx="34" fill="#A0A0A0"/>
<rect x="38" y="44" width="220" height="214" rx="34" fill="#A0A0A0"/>
<rect x="38" y="296" width="220" height="214" rx="34" fill="#A0A0A0"/>
<rect x="38" y="296" width="220" height="214" rx="34" fill="#A0A0A0"/>
<rect x="38" y="296" width="220" height="214" rx="34" fill="#E26D01"/>
<rect x="294" y="296" width="220" height="214" rx="34" fill="#A0A0A0"/>
<rect x="294" y="296" width="220" height="214" rx="34" fill="#A0A0A0"/>
<rect x="294" y="296" width="220" height="214" rx="34" fill="#A0A0A0"/>
<rect x="294" y="44" width="220" height="214" rx="34" fill="#A0A0A0"/>
<rect x="294" y="44" width="220" height="214" rx="34" fill="#A0A0A0"/>
<rect x="294" y="44" width="220" height="214" rx="34" fill="#03A859"/>
</svg>
